# xmcd
# 
# Track frame offsets:
#     150
#     15330
#     28907
#     47282
# 
# Disc length: 873
# 
# Revision: 0
# Processed by: cddbd v1.5.2PL0 Copyright (c) Steve Scherf et al.
# Submitted via: fre:ac v1.0.17
# 
DISCID=21036704
DTITLE=Sad Kid - Illegitimate Son
DYEAR=2016
DGENRE=Punk
TTITLE0=Confido
TTITLE1=Lefty Slapper
TTITLE2=No Cops
TTITLE3=Abusement Park
EXTD=
EXTT0=
EXTT1=
EXTT2=
EXTT3=
PLAYORDER=
